<svg width="281" height="72" viewBox="0 0 281 72" fill="none" xmlns="http://www.w3.org/2000/svg">
<path d="M0 36C0 16.1178 16.1178 0 36 0H245C264.882 0 281 16.1178 281 36C281 55.8823 264.882 72 245 72H36C16.1177 72 0 55.8823 0 36Z" fill="#F5F7FA"/>
<path d="M84.1667 38.9804L64.8223 47.2388V62.0003C64.8223 62.0003 71.5735 59.0331 82.4852 53.8036C91.0799 49.6867 96.9593 46.596 96.9593 46.596V26.3701H64.8223V39.2647L84.1667 38.9928V38.9804Z" fill="#EAEBEC"/>
<path d="M37.7925 34.0199L57.137 25.7614V11C57.137 11 50.3857 13.9671 39.4741 19.1967C30.8793 23.3135 25 26.4042 25 26.4042V46.6301H57.137V33.7355L37.7925 34.0075V34.0199Z" fill="#EAEBEC"/>
</svg>
