<svg width="181" height="72" viewBox="0 0 181 72" fill="none" xmlns="http://www.w3.org/2000/svg">
<path d="M0 36C0 16.1178 16.1177 0 36 0H145C164.882 0 181 16.1178 181 36C181 55.8823 164.882 72 145 72H36C16.1178 72 0 55.8823 0 36Z" fill="#F5F7FA"/>
<path d="M50.806 36.4979H56.7928L43.991 11V36.4979H38L50.806 62V36.4979Z" fill="#EAEBEC"/>
<path d="M78.806 36.4979H84.797L71.991 11V36.4979H66L78.806 62V36.4979Z" fill="#EAEBEC"/>
<path d="M107.733 36.4979H113.724L100.918 11V36.4979H94.9316L107.733 62V36.4979Z" fill="#EAEBEC"/>
<path d="M136.202 36.4979H142.189L129.388 11V36.4979H123.396L136.202 62V36.4979Z" fill="#EAEBEC"/>
</svg>
