<svg width="700" height="255" viewBox="0 0 700 255" fill="none" xmlns="http://www.w3.org/2000/svg">
<rect width="700" height="255" fill="#9440E7"/>
<path d="M94 82H115.22V136.49L134.27 113.22H158.62L135.6 141.19L161.76 171.09H137.41L115.23 145.66V171.09H94.01V82.01L94 82Z" fill="white"/>
<path d="M194.369 172.9C187.219 172.9 180.949 171.61 175.569 169.04C170.189 166.39 166.009 162.77 163.029 158.19C160.139 153.53 158.689 148.18 158.689 142.16C158.689 136.14 160.139 130.83 163.029 126.25C165.999 121.59 170.179 117.97 175.569 115.4C180.949 112.75 187.219 111.42 194.369 111.42C201.519 111.42 207.789 112.75 213.179 115.4C218.559 117.97 222.699 121.59 225.599 126.25C228.569 130.83 230.059 136.13 230.059 142.16C230.059 148.19 228.569 153.53 225.599 158.19C222.709 162.77 218.569 166.39 213.179 169.04C207.799 171.61 201.529 172.9 194.369 172.9ZM194.369 156.38C198.629 156.38 201.999 155.13 204.499 152.64C207.069 150.07 208.359 146.57 208.359 142.15C208.359 137.73 207.069 134.27 204.499 131.78C202.009 129.21 198.629 127.92 194.369 127.92C190.109 127.92 186.699 129.21 184.119 131.78C181.629 134.27 180.379 137.73 180.379 142.15C180.379 146.57 181.629 150.07 184.119 152.64C186.689 155.13 190.109 156.38 194.369 156.38Z" fill="white"/>
<path d="M265 172.9C258.97 172.9 253.63 171.65 248.97 169.16C244.31 166.59 240.69 163.01 238.12 158.43C235.55 153.77 234.26 148.38 234.26 142.28C234.26 136.18 235.55 130.91 238.12 126.25C240.69 121.51 244.27 117.85 248.85 115.28C253.51 112.71 258.9 111.42 265 111.42C269.02 111.42 272.71 111.98 276.09 113.11C279.47 114.24 282.36 115.84 284.77 117.93V82.0098H305.99V171.09H285.5V165.3C280.12 170.36 273.29 172.89 265.01 172.89L265 172.9ZM270.55 156.5C273.77 156.5 276.66 155.7 279.23 154.09C281.8 152.4 283.65 150.15 284.78 147.34V137.09C283.66 134.28 281.81 132.07 279.23 130.46C276.66 128.77 273.77 127.93 270.55 127.93C266.21 127.93 262.71 129.22 260.06 131.79C257.41 134.36 256.08 137.86 256.08 142.28C256.08 146.7 257.41 150.2 260.06 152.77C262.71 155.26 266.21 156.51 270.55 156.51V156.5Z" fill="white"/>
<path d="M350.83 172.9C339.5 172.9 330.58 170.25 324.07 164.94C317.64 159.64 314.43 152.12 314.43 142.4C314.43 132.68 317.28 125.28 322.99 119.74C328.78 114.19 337.09 111.42 347.94 111.42C354.85 111.42 360.76 112.75 365.66 115.4C370.64 117.97 374.38 121.55 376.87 126.13C379.44 130.63 380.73 135.73 380.73 141.44V149.28H334.56C335.36 152.49 337.37 154.83 340.59 156.27C343.81 157.72 348.18 158.44 353.73 158.44C357.51 158.44 361.36 158.12 365.3 157.48C369.32 156.84 372.77 155.95 375.67 154.83V168.81C372.7 170.02 368.96 170.98 364.46 171.7C360.04 172.5 355.5 172.91 350.84 172.91L350.83 172.9ZM360.72 136.01C360.4 132.88 359.11 130.42 356.86 128.66C354.61 126.89 351.52 126.01 347.58 126.01C343.64 126.01 340.67 126.93 338.42 128.78C336.17 130.55 334.88 132.96 334.56 136.01H360.72Z" fill="white"/>
<path d="M430.111 172.9C421.831 172.9 415.001 170.37 409.621 165.31V171.1H389.131V82.0195H410.351V117.94C412.681 115.93 415.571 114.36 419.031 113.24C422.571 112.03 426.261 111.43 430.121 111.43C436.231 111.43 441.571 112.72 446.151 115.29C450.811 117.86 454.431 121.52 457.001 126.26C459.571 130.92 460.861 136.27 460.861 142.29C460.861 148.31 459.571 153.78 457.001 158.44C454.431 163.02 450.811 166.6 446.151 169.17C441.491 171.66 436.141 172.91 430.121 172.91L430.111 172.9ZM424.561 156.5C428.901 156.5 432.401 155.25 435.051 152.76C437.701 150.19 439.031 146.69 439.031 142.27C439.031 137.85 437.701 134.35 435.051 131.78C432.401 129.21 428.901 127.92 424.561 127.92C421.351 127.92 418.451 128.76 415.881 130.45C413.311 132.06 411.461 134.27 410.331 137.08V147.33C411.461 150.14 413.301 152.39 415.881 154.08C418.451 155.69 421.351 156.49 424.561 156.49V156.5Z" fill="white"/>
<path d="M499.5 172.9C492.35 172.9 486.08 171.61 480.7 169.04C475.32 166.39 471.14 162.77 468.16 158.19C465.27 153.53 463.82 148.18 463.82 142.16C463.82 136.14 465.27 130.83 468.16 126.25C471.13 121.59 475.31 117.97 480.7 115.4C486.09 112.75 492.35 111.42 499.5 111.42C506.65 111.42 512.92 112.75 518.3 115.4C523.69 117.97 527.82 121.59 530.72 126.25C533.69 130.83 535.18 136.13 535.18 142.16C535.18 148.19 533.69 153.53 530.72 158.19C527.83 162.77 523.69 166.39 518.3 169.04C512.92 171.61 506.65 172.9 499.5 172.9ZM499.5 156.38C503.76 156.38 507.13 155.13 509.63 152.64C512.2 150.07 513.49 146.57 513.49 142.15C513.49 137.73 512.2 134.27 509.63 131.78C507.14 129.21 503.76 127.92 499.5 127.92C495.24 127.92 491.83 129.21 489.25 131.78C486.76 134.27 485.51 137.73 485.51 142.15C485.51 146.57 486.76 150.07 489.25 152.64C491.82 155.13 495.24 156.38 499.5 156.38Z" fill="white"/>
<path d="M558.1 141.191L534.83 113.221H558.7L570.03 126.841L581.36 113.221H605.23L581.96 141.191L606.79 171.091H583.16L570.02 155.421L557 171.091H533.25L558.08 141.191H558.1Z" fill="white"/>
</svg>
