<svg width="945" height="140" viewBox="0 0 945 140" fill="none" xmlns="http://www.w3.org/2000/svg">
<path d="M267.41 12.6026V51.4581L387.204 37.4161V3.83716L267.41 12.6026Z" fill="white"/>
<path d="M358.203 68.9895L316.557 69.6436L369.193 139.2L399.675 116.828L358.203 68.9895Z" fill="white"/>
<path d="M306.92 12.6025H267.41V134.359H306.92V12.6025Z" fill="white"/>
<path d="M336.268 95.9833L387.203 59.1337V16.5715L316.557 69.6435L336.268 95.9833Z" fill="white"/>
<path d="M472.807 100.039C454.36 100.039 441.452 87.305 441.452 68.4224C441.452 50.6299 454.404 37.7218 472.807 37.7218C491.21 37.7218 503.508 50.6736 503.508 68.4224C503.508 87.305 490.774 100.039 472.807 100.039ZM472.589 138.022C512.535 138.022 541.491 108.848 541.491 68.9021C541.491 28.9564 512.535 0 472.589 0C432.643 0 403.469 28.9564 403.469 68.9021C403.469 108.848 432.425 138.022 472.589 138.022Z" fill="white"/>
<path d="M753.606 100.039C735.159 100.039 722.251 87.305 722.251 68.4224C722.251 50.6299 735.203 37.7218 753.606 37.7218C772.009 37.7218 784.306 50.6736 784.306 68.4224C784.306 87.305 771.573 100.039 753.606 100.039ZM753.388 138.022C793.333 138.022 822.29 108.848 822.29 68.9021C822.29 28.9564 793.333 0 753.388 0C713.442 0 684.268 28.9564 684.268 68.9021C684.268 108.848 713.224 138.022 753.388 138.022Z" fill="white"/>
<path d="M634.684 14.521H592.34V135.187H634.684V14.521Z" fill="white"/>
<path d="M674.847 46.3998V5.36377L550.998 13.257V53.8568L674.847 46.3998Z" fill="white"/>
<path d="M167.851 12.5151H128.342V134.271H167.851V12.5151Z" fill="white"/>
<path d="M128.342 12.5162L250.316 3.75073V37.9401L128.342 51.1099V12.5162Z" fill="white"/>
<path d="M202.258 100.257L179.232 69.3383L250.315 21.9353V63.1894L202.258 100.257Z" fill="white"/>
<path d="M42.9541 91.098L107.888 63.1884V13.2561C107.888 13.2561 85.2111 23.2862 48.6232 40.9478C19.7977 54.859 0.0429688 65.3251 0.0429688 65.3251V133.748H107.888V90.1823L42.9541 91.098Z" fill="white"/>
<path d="M0 133.748H107.888V90.1392L0 91.5782V133.748Z" fill="white"/>
<path d="M901.875 51.3277L836.941 79.2374V129.17C836.941 129.17 859.618 119.14 896.206 101.478C925.031 87.5667 944.786 77.1006 944.786 77.1006V8.67822H836.941V52.2435L901.875 51.3277Z" fill="white"/>
<path d="M944.786 8.63452H836.941V52.2434L944.786 50.8044V8.63452Z" fill="white"/>
</svg>
