<svg width="1206" height="110" viewBox="0 0 1206 110" fill="none" xmlns="http://www.w3.org/2000/svg">
<path d="M0 0H1206V110H0L21.5 55L0 0Z" fill="#00CF71"/>
<path d="M125.386 110H105.244L84.0332 54.9971H104.18L125.386 110Z" fill="#CAFCD1"/>
<path d="M62.8301 0H82.9774L104.188 54.9973H84.0405L62.8301 0Z" fill="#CAFCD1"/>
<path d="M41.3578 54.9971L20.1474 110H0L21.2106 54.9971H41.3578Z" fill="#CAFCD1"/>
<path d="M0 0H20.1474L41.3578 54.9973H21.2106L0 0Z" fill="#CAFCD1"/>
<path d="M421 0H581.5L558.5 110H398L421 0Z" fill="#26252E"/>
<path d="M241.88 24L240.28 31.84H223.64L213.4 80H204.84L215.08 31.84H198.36L199.96 24H241.88ZM248.769 74.48C257.569 74.48 262.609 66.64 264.129 59.84C265.409 53.6 264.209 46.48 256.129 46.48C247.329 46.48 242.289 54.32 240.769 61.12C239.489 67.36 240.689 74.48 248.769 74.48ZM256.049 40C270.209 40 273.409 51.36 271.249 61.12C269.409 70.24 262.209 80.96 248.849 80.96C234.609 80.96 231.489 69.6 233.569 59.84C235.489 50.72 242.609 40 256.049 40ZM317.516 73.12C324.476 73.12 330.156 67.68 331.756 60.32C333.276 53.04 329.836 47.76 323.036 47.76C316.236 47.76 310.476 53.2 308.876 60.56C307.356 67.84 310.716 73.12 317.516 73.12ZM326.156 39.92C338.236 39.92 342.316 50.96 339.996 61.68C337.916 71.52 330.716 80.88 318.636 80.88C310.316 80.88 307.436 76.4 306.396 72.32H305.116C305.116 72.32 305.276 75.84 304.876 79.44L304.796 79.92H296.156L308.076 23.92H316.716L313.436 39.2C312.316 44.4 310.156 48.48 310.156 48.48H311.436C314.236 44.4 318.476 39.92 326.156 39.92ZM367.591 47.12C360.551 47.12 356.151 52.64 354.471 57.2L376.311 57.12C376.711 52.8 374.711 47.12 367.591 47.12ZM353.191 62.48C352.471 66.96 353.831 73.84 361.751 73.84C367.431 73.84 370.951 70.8 373.111 66.96H381.751C379.271 72.32 373.511 80.96 361.111 80.96C347.831 80.96 343.831 68.88 345.831 59.76C347.831 50.24 355.191 40 368.231 40C381.351 40 386.311 50.48 383.431 62.32L353.191 62.48ZM573.801 54.96H602.441L600.921 62.08H572.281L573.801 54.96ZM625.107 75.04C614.787 75.04 608.147 67.6 610.387 57.12C612.627 46.56 620.467 40 630.867 40C638.467 40 645.107 44.8 643.027 53.92C643.347 56.24 647.667 54.56 647.027 57.68C644.867 68.16 635.987 75.04 625.107 75.04ZM626.467 67.92C633.027 67.92 638.627 63.6 639.907 57.44C641.187 51.36 637.507 47.12 631.027 47.12C624.387 47.12 618.867 51.52 617.507 57.68C616.387 63.44 620.227 67.92 626.467 67.92ZM621.107 96.88C628.787 96.88 635.107 94.48 635.907 91.04C636.627 87.6 631.187 85.36 623.667 85.36C615.827 85.36 609.667 87.76 608.947 91.2C608.227 94.64 613.427 96.88 621.107 96.88ZM613.267 82.24C612.547 82.24 611.427 82.24 610.867 82.24C607.427 82.24 605.427 80.4 606.147 77.2C606.787 74.08 609.427 72.48 612.867 72.48H613.747L614.067 71.04L625.347 73.44L624.947 75.04H615.907C614.467 75.04 613.107 75.68 612.787 77.12C612.467 78.56 613.587 79.04 615.027 79.04C619.107 79.04 620.707 79.04 624.867 79.04C638.147 79.04 645.187 85.04 643.747 92C642.227 98.96 632.147 103.2 619.987 103.2C607.427 103.2 599.507 98.08 600.867 91.68C602.067 85.76 609.107 83.92 612.947 83.52L613.267 82.24ZM644.307 53.92C644.307 53.92 644.467 47.04 645.107 44C645.427 42.24 646.947 40.96 648.707 40.96H656.307L654.707 48.8H650.547C649.587 48.8 648.787 49.44 648.547 50.4L647.027 57.68L640.467 58.56L643.027 53.92H644.307ZM690.434 40.96L688.034 48.8C675.474 48.8 669.874 62.8 668.194 70.48L666.194 80H657.474L663.874 50.4C664.034 49.6 663.314 48.8 662.514 48.8H658.594L660.274 40.96H670.194C672.274 40.96 673.314 41.84 672.914 43.6C672.114 47.28 666.754 60 666.754 60H668.514C671.954 50.88 679.314 40.96 690.434 40.96ZM710.716 47.12C703.676 47.12 699.276 52.64 697.596 57.2L719.436 57.12C719.836 52.8 717.836 47.12 710.716 47.12ZM696.316 62.48C695.596 66.96 696.956 73.84 704.876 73.84C710.556 73.84 714.076 70.8 716.236 66.96H724.876C722.396 72.32 716.636 80.96 704.236 80.96C690.956 80.96 686.956 68.88 688.956 59.76C690.956 50.24 698.316 40 711.356 40C724.476 40 729.436 50.48 726.556 62.32L696.316 62.48ZM763.908 68.24C762.708 74.96 756.468 80.96 744.628 80.96C733.828 80.96 728.628 75.04 730.068 68H737.988C737.028 71.92 740.228 73.84 745.828 73.84C749.828 73.84 754.548 72.08 755.348 68C756.948 59.04 731.508 66.32 734.308 51.68C735.508 45.2 741.268 40 751.988 40C762.308 40 767.908 45.44 766.548 52C766.468 52.24 766.388 52.56 766.388 52.8H758.388C758.468 52.56 758.468 52.4 758.548 52.16C759.428 48.64 755.908 47.12 751.428 47.12C747.588 47.12 743.508 48.56 742.708 51.92C740.788 59.36 766.708 52.32 763.908 68.24ZM802.111 68.24C800.911 74.96 794.671 80.96 782.831 80.96C772.031 80.96 766.831 75.04 768.271 68H776.191C775.231 71.92 778.431 73.84 784.031 73.84C788.031 73.84 792.751 72.08 793.551 68C795.151 59.04 769.711 66.32 772.511 51.68C773.711 45.2 779.471 40 790.191 40C800.511 40 806.111 45.44 804.751 52C804.671 52.24 804.591 52.56 804.591 52.8H796.591C796.671 52.56 796.671 52.4 796.751 52.16C797.631 48.64 794.111 47.12 789.631 47.12C785.791 47.12 781.711 48.56 780.911 51.92C778.991 59.36 804.911 52.32 802.111 68.24ZM824.402 45.36L817.042 80H808.402L814.642 50.88C814.962 49.68 814.162 48.8 813.122 48.8H809.922L811.602 40.96H820.802C823.442 40.96 824.962 42.72 824.402 45.36ZM823.602 30.96C825.522 30.96 827.682 29.28 828.082 27.2C828.642 24.4 826.722 22.16 824.002 22.16C821.922 22.16 819.842 23.68 819.362 25.84C818.802 28.56 820.802 30.96 823.602 30.96ZM846.489 66.48L861.129 40.96H870.489L848.569 80H835.529L830.249 40.96H838.729L842.489 66.32C842.889 69.28 842.649 72.16 842.649 72.16L843.929 72.24C843.929 72.24 844.809 69.36 846.489 66.48ZM890.326 47.12C883.286 47.12 878.886 52.64 877.206 57.2L899.046 57.12C899.446 52.8 897.446 47.12 890.326 47.12ZM875.926 62.48C875.206 66.96 876.566 73.84 884.486 73.84C890.166 73.84 893.686 70.8 895.846 66.96H904.486C902.006 72.32 896.246 80.96 883.846 80.96C870.566 80.96 866.566 68.88 868.566 59.76C870.566 50.24 877.926 40 890.966 40C904.086 40 909.046 50.48 906.166 62.32L875.926 62.48Z" fill="white"/>
<path d="M440.982 47.76C445.862 47.76 450.822 45.12 452.022 39.84C453.142 34.88 449.622 31.84 444.742 31.84H428.902L425.462 47.76H440.982ZM446.022 24C455.142 24 462.502 30.72 460.422 40.48C458.422 49.6 450.102 55.6 441.062 55.6H423.782L418.662 80H410.022L421.862 24H446.022ZM490.986 47.84C495.786 47.84 500.826 45.28 502.026 40C503.226 34.88 499.546 31.84 494.746 31.84H478.826L475.466 47.84H490.986ZM497.706 51.76C502.026 51.92 506.026 55.84 504.826 61.28C503.706 66.96 500.906 80 500.906 80H493.066C493.066 80 495.866 66.56 497.146 60.48C497.706 57.68 496.586 55.68 493.626 55.68H473.706L468.426 80H459.866L471.946 24H496.026C507.386 24 512.186 31.52 510.426 39.6C508.666 48.08 500.666 50.08 498.026 50.48L497.706 51.76ZM534.58 73.12C547.62 73.12 555.54 61.44 557.7 51.28C559.7 41.92 557.3 30.88 544.98 30.88C531.94 30.88 524.02 42.56 521.86 52.64C519.86 62.08 522.18 73.12 534.58 73.12ZM545.3 23.04C564.5 23.04 568.98 38.96 566.02 52.72C563.3 65.68 552.9 80.96 534.34 80.96C515.14 80.96 510.66 65.04 513.46 51.44C516.34 38.32 526.74 23.04 545.3 23.04Z" fill="#00CF71"/>
</svg>
