<svg width="1305" height="110" viewBox="0 0 1305 110" fill="none" xmlns="http://www.w3.org/2000/svg">
<path d="M29.7792 0H1305V110H29.7792L13 55L29.7792 0Z" fill="#EAEBEC"/>
<path d="M33.9936 55L55.1976 0.000536111L75.3438 0.000537872L54.1344 55L33.9936 55Z" fill="#C4C8CF"/>
<path d="M75.3438 110L55.1976 110L33.9936 55.0005L54.1344 55.0005L75.3438 110Z" fill="#C4C8CF"/>
<path d="M0.00139618 54.9995L21.2054 4.78298e-05L41.3516 4.95911e-05L20.1423 54.9995L0.00139618 54.9995Z" fill="#C4C8CF"/>
<path d="M41.3516 110L21.2054 110L0.00140099 55L20.1423 55L41.3516 110Z" fill="#C4C8CF"/>
<path d="M422 0H582.5L559.5 110H399L422 0Z" fill="#170FFF"/>
<path d="M241.88 25L240.28 32.84H223.64L213.4 81H204.84L215.08 32.84H198.36L199.96 25H241.88ZM248.769 75.48C257.569 75.48 262.609 67.64 264.129 60.84C265.409 54.6 264.209 47.48 256.129 47.48C247.329 47.48 242.289 55.32 240.769 62.12C239.489 68.36 240.689 75.48 248.769 75.48ZM256.049 41C270.209 41 273.409 52.36 271.249 62.12C269.409 71.24 262.209 81.96 248.849 81.96C234.609 81.96 231.489 70.6 233.569 60.84C235.489 51.72 242.609 41 256.049 41ZM317.516 74.12C324.476 74.12 330.156 68.68 331.756 61.32C333.276 54.04 329.836 48.76 323.036 48.76C316.236 48.76 310.476 54.2 308.876 61.56C307.356 68.84 310.716 74.12 317.516 74.12ZM326.156 40.92C338.236 40.92 342.316 51.96 339.996 62.68C337.916 72.52 330.716 81.88 318.636 81.88C310.316 81.88 307.436 77.4 306.396 73.32H305.116C305.116 73.32 305.276 76.84 304.876 80.44L304.796 80.92H296.156L308.076 24.92H316.716L313.436 40.2C312.316 45.4 310.156 49.48 310.156 49.48H311.436C314.236 45.4 318.476 40.92 326.156 40.92ZM367.591 48.12C360.551 48.12 356.151 53.64 354.471 58.2L376.311 58.12C376.711 53.8 374.711 48.12 367.591 48.12ZM353.191 63.48C352.471 67.96 353.831 74.84 361.751 74.84C367.431 74.84 370.951 71.8 373.111 67.96H381.751C379.271 73.32 373.511 81.96 361.111 81.96C347.831 81.96 343.831 69.88 345.831 60.76C347.831 51.24 355.191 41 368.231 41C381.351 41 386.311 51.48 383.431 63.32L353.191 63.48ZM573.801 55.96H602.441L600.921 63.08H572.281L573.801 55.96ZM618.707 38.52C620.227 31.88 624.067 25 635.427 25H641.827L640.147 32.84H633.187C630.307 32.84 628.147 34.76 627.587 37.4L626.547 41.96H638.227L636.547 49.8H624.947L618.307 81H609.667L616.307 49.8H609.987L611.587 41.96H617.907L618.707 38.52ZM658.763 48.12C651.723 48.12 647.323 53.64 645.643 58.2L667.483 58.12C667.883 53.8 665.883 48.12 658.763 48.12ZM644.363 63.48C643.643 67.96 645.003 74.84 652.923 74.84C658.603 74.84 662.123 71.8 664.283 67.96H672.923C670.443 73.32 664.683 81.96 652.283 81.96C639.003 81.96 635.003 69.88 637.003 60.76C639.003 51.24 646.363 41 659.403 41C672.523 41 677.483 51.48 674.603 63.32L644.363 63.48ZM711.955 69.24C710.755 75.96 704.515 81.96 692.675 81.96C681.875 81.96 676.675 76.04 678.115 69H686.035C685.075 72.92 688.275 74.84 693.875 74.84C697.875 74.84 702.595 73.08 703.395 69C704.995 60.04 679.555 67.32 682.355 52.68C683.555 46.2 689.315 41 700.035 41C710.355 41 715.955 46.44 714.595 53C714.515 53.24 714.435 53.56 714.435 53.8H706.435C706.515 53.56 706.515 53.4 706.595 53.16C707.475 49.64 703.955 48.12 699.475 48.12C695.635 48.12 691.555 49.56 690.755 52.92C688.835 60.36 714.755 53.32 711.955 69.24ZM750.158 69.24C748.958 75.96 742.718 81.96 730.878 81.96C720.078 81.96 714.878 76.04 716.318 69H724.238C723.278 72.92 726.478 74.84 732.078 74.84C736.078 74.84 740.798 73.08 741.598 69C743.198 60.04 717.758 67.32 720.558 52.68C721.758 46.2 727.518 41 738.238 41C748.558 41 754.158 46.44 752.798 53C752.718 53.24 752.638 53.56 752.638 53.8H744.638C744.718 53.56 744.718 53.4 744.798 53.16C745.678 49.64 742.158 48.12 737.678 48.12C733.838 48.12 729.758 49.56 728.958 52.92C727.038 60.36 752.958 53.32 750.158 69.24ZM772.449 46.36L765.089 81H756.449L762.689 51.88C763.009 50.68 762.209 49.8 761.169 49.8H757.969L759.649 41.96H768.849C771.489 41.96 773.009 43.72 772.449 46.36ZM771.649 31.96C773.569 31.96 775.729 30.28 776.129 28.2C776.689 25.4 774.769 23.16 772.049 23.16C769.969 23.16 767.889 24.68 767.409 26.84C766.849 29.56 768.849 31.96 771.649 31.96ZM791.816 75.48C800.616 75.48 805.656 67.64 807.176 60.84C808.456 54.6 807.256 47.48 799.176 47.48C790.376 47.48 785.336 55.32 783.816 62.12C782.536 68.36 783.736 75.48 791.816 75.48ZM799.096 41C813.256 41 816.456 52.36 814.296 62.12C812.456 71.24 805.256 81.96 791.896 81.96C777.656 81.96 774.536 70.6 776.616 60.84C778.536 51.72 785.656 41 799.096 41ZM860.044 59.64L855.484 81H846.924L851.324 59.8C852.524 54.12 851.724 49 845.644 47.8C838.604 46.2 833.644 51.8 831.724 57.64C831.084 59.8 829.724 64.84 829.004 68.44L826.364 81H817.724L826.044 41.96H834.684L834.204 43.88C833.244 47.64 830.524 52.44 830.524 52.44H831.804C836.204 42.92 844.524 39.72 851.324 41.4C860.364 43.72 861.484 52.6 860.044 59.64ZM895.889 59.88C894.369 60.76 890.129 61.64 881.569 62.92C878.369 63.4 874.369 65.56 873.569 69.24C872.929 72.44 875.089 74.68 878.049 75.24C881.089 75.56 883.249 75.48 886.929 73.64C890.609 71.8 893.249 68.76 894.289 65.96C894.609 64.92 894.929 63.72 895.249 62.68L895.889 59.88ZM906.529 73.24L904.849 81.08H898.609C895.489 81.08 894.209 78.92 894.769 76.04C895.489 72.68 899.809 65.32 899.809 65.32H898.529C898.529 65.32 893.889 74.92 887.409 78.92C882.849 81.8 877.889 82.36 873.169 81.8C867.889 81.24 863.729 76.84 865.089 70.44C866.529 63.56 871.729 60.6 876.689 59.48C882.129 58.28 886.609 58.2 890.289 57.4C893.409 56.84 896.769 56.36 896.609 53.4C896.529 50.44 893.489 48.12 888.529 48.12C882.209 48.12 877.729 51.8 876.849 55.72H868.529C870.129 48.36 877.649 41 890.049 41C902.369 41 906.929 48.44 905.249 56.28L901.969 71.56C901.809 72.44 902.369 73.24 903.329 73.24H906.529ZM923.246 25H931.806L919.966 81H911.406L923.246 25Z" fill="#170FFF"/>
<path d="M440.982 48.76C445.862 48.76 450.822 46.12 452.022 40.84C453.142 35.88 449.622 32.84 444.742 32.84H428.902L425.462 48.76H440.982ZM446.022 25C455.142 25 462.502 31.72 460.422 41.48C458.422 50.6 450.102 56.6 441.062 56.6H423.782L418.662 81H410.022L421.862 25H446.022ZM490.986 48.84C495.786 48.84 500.826 46.28 502.026 41C503.226 35.88 499.546 32.84 494.746 32.84H478.826L475.466 48.84H490.986ZM497.706 52.76C502.026 52.92 506.026 56.84 504.826 62.28C503.706 67.96 500.906 81 500.906 81H493.066C493.066 81 495.866 67.56 497.146 61.48C497.706 58.68 496.586 56.68 493.626 56.68H473.706L468.426 81H459.866L471.946 25H496.026C507.386 25 512.186 32.52 510.426 40.6C508.666 49.08 500.666 51.08 498.026 51.48L497.706 52.76ZM534.58 74.12C547.62 74.12 555.54 62.44 557.7 52.28C559.7 42.92 557.3 31.88 544.98 31.88C531.94 31.88 524.02 43.56 521.86 53.64C519.86 63.08 522.18 74.12 534.58 74.12ZM545.3 24.04C564.5 24.04 568.98 39.96 566.02 53.72C563.3 66.68 552.9 81.96 534.34 81.96C515.14 81.96 510.66 66.04 513.46 52.44C516.34 39.32 526.74 24.04 545.3 24.04Z" fill="white"/>
</svg>
