<svg width="1154" height="110" viewBox="0 0 1154 110" fill="none" xmlns="http://www.w3.org/2000/svg">
<path d="M0 0H1123.62L1144 55L1123.62 110H0V0Z" fill="#170FFF"/>
<path d="M458 0H618.5L595.5 110H435L458 0Z" fill="#EAEBEC"/>
<path d="M1014 109.995H1034.14L1055.35 54.9998H1035.2L1014 109.995Z" fill="#A39FFF"/>
<path d="M1076.55 0H1056.41L1035.2 55.0002H1055.34L1076.55 0Z" fill="#A39FFF"/>
<path d="M1153.91 55.0002L1132.7 0H1112.55L1133.76 55.0002H1153.91Z" fill="#A39FFF"/>
<path d="M1112.55 110H1132.7L1153.91 54.9998H1133.76L1112.55 110Z" fill="#A39FFF"/>
<path d="M277.88 27L276.28 34.84H259.64L249.4 83H240.84L251.08 34.84H234.36L235.96 27H277.88ZM284.769 77.48C293.569 77.48 298.609 69.64 300.129 62.84C301.409 56.6 300.209 49.48 292.129 49.48C283.329 49.48 278.289 57.32 276.769 64.12C275.489 70.36 276.689 77.48 284.769 77.48ZM292.049 43C306.209 43 309.409 54.36 307.249 64.12C305.409 73.24 298.209 83.96 284.849 83.96C270.609 83.96 267.489 72.6 269.569 62.84C271.489 53.72 278.609 43 292.049 43ZM353.516 76.12C360.476 76.12 366.156 70.68 367.756 63.32C369.276 56.04 365.836 50.76 359.036 50.76C352.236 50.76 346.476 56.2 344.876 63.56C343.356 70.84 346.716 76.12 353.516 76.12ZM362.156 42.92C374.236 42.92 378.316 53.96 375.996 64.68C373.916 74.52 366.716 83.88 354.636 83.88C346.316 83.88 343.436 79.4 342.396 75.32H341.116C341.116 75.32 341.276 78.84 340.876 82.44L340.796 82.92H332.156L344.076 26.92H352.716L349.436 42.2C348.316 47.4 346.156 51.48 346.156 51.48H347.436C350.236 47.4 354.476 42.92 362.156 42.92ZM403.591 50.12C396.551 50.12 392.151 55.64 390.471 60.2L412.311 60.12C412.711 55.8 410.711 50.12 403.591 50.12ZM389.191 65.48C388.471 69.96 389.831 76.84 397.751 76.84C403.431 76.84 406.951 73.8 409.111 69.96H417.751C415.271 75.32 409.511 83.96 397.111 83.96C383.831 83.96 379.831 71.88 381.831 62.76C383.831 53.24 391.191 43 404.231 43C417.351 43 422.311 53.48 419.431 65.32L389.191 65.48ZM609.801 57.96H638.441L636.921 65.08H608.281L609.801 57.96ZM674.467 61.88C672.947 62.76 668.707 63.64 660.147 64.92C656.947 65.4 652.947 67.56 652.147 71.24C651.507 74.44 653.667 76.68 656.627 77.24C659.667 77.56 661.827 77.48 665.507 75.64C669.187 73.8 671.827 70.76 672.867 67.96C673.187 66.92 673.507 65.72 673.827 64.68L674.467 61.88ZM685.107 75.24L683.427 83.08H677.187C674.067 83.08 672.787 80.92 673.347 78.04C674.067 74.68 678.387 67.32 678.387 67.32H677.107C677.107 67.32 672.467 76.92 665.987 80.92C661.427 83.8 656.467 84.36 651.747 83.8C646.467 83.24 642.307 78.84 643.667 72.44C645.107 65.56 650.307 62.6 655.267 61.48C660.707 60.28 665.187 60.2 668.867 59.4C671.987 58.84 675.347 58.36 675.187 55.4C675.107 52.44 672.067 50.12 667.107 50.12C660.787 50.12 656.307 53.8 655.427 57.72H647.107C648.707 50.36 656.227 43 668.627 43C680.947 43 685.507 50.44 683.827 58.28L680.547 73.56C680.387 74.44 680.947 75.24 681.907 75.24H685.107ZM718.003 70.36H727.123C723.843 77.24 718.323 83.96 706.883 83.96C693.603 83.96 689.443 71.96 691.283 62.84C693.283 53.4 700.403 43 713.763 43C724.323 43 729.523 49.96 730.003 56.84H720.963C720.323 53.72 718.323 50.84 713.043 50.84C705.683 50.84 700.963 57.96 699.843 63.32C698.562 69.32 699.443 76.12 707.763 76.12C712.883 76.12 716.243 73.08 718.003 70.36ZM736.441 68.84L740.121 51.8H733.721L735.321 43.96H741.721L745.321 27H753.881L750.281 43.96H761.961L760.281 51.8H748.681L744.681 70.36C744.041 73.24 745.321 75.16 748.361 75.16C749.641 75.16 754.681 75.16 755.321 75.16L753.641 83C751.321 83 754.441 83 747.801 83C738.681 83 734.921 76.12 736.441 68.84ZM778.683 48.36L771.323 83H762.683L768.923 53.88C769.243 52.68 768.443 51.8 767.403 51.8H764.203L765.883 43.96H775.083C777.723 43.96 779.243 45.72 778.683 48.36ZM777.883 33.96C779.803 33.96 781.963 32.28 782.363 30.2C782.923 27.4 781.003 25.16 778.283 25.16C776.203 25.16 774.123 26.68 773.643 28.84C773.083 31.56 775.083 33.96 777.883 33.96ZM800.771 69.48L815.411 43.96H824.771L802.851 83H789.811L784.531 43.96H793.011L796.771 69.32C797.171 72.28 796.931 75.16 796.931 75.16L798.211 75.24C798.211 75.24 799.091 72.36 800.771 69.48ZM844.607 50.12C837.567 50.12 833.167 55.64 831.487 60.2L853.327 60.12C853.727 55.8 851.727 50.12 844.607 50.12ZM830.207 65.48C829.487 69.96 830.847 76.84 838.767 76.84C844.447 76.84 847.967 73.8 850.127 69.96H858.767C856.287 75.32 850.527 83.96 838.127 83.96C824.847 83.96 820.847 71.88 822.847 62.76C824.847 53.24 832.207 43 845.247 43C858.367 43 863.327 53.48 860.447 65.32L830.207 65.48Z" fill="#D1CFFF"/>
<path d="M476.982 50.76C481.862 50.76 486.822 48.12 488.022 42.84C489.142 37.88 485.622 34.84 480.742 34.84H464.902L461.462 50.76H476.982ZM482.022 27C491.142 27 498.502 33.72 496.422 43.48C494.422 52.6 486.102 58.6 477.062 58.6H459.782L454.662 83H446.022L457.862 27H482.022ZM526.986 50.84C531.786 50.84 536.826 48.28 538.026 43C539.226 37.88 535.546 34.84 530.746 34.84H514.826L511.466 50.84H526.986ZM533.706 54.76C538.026 54.92 542.026 58.84 540.826 64.28C539.706 69.96 536.906 83 536.906 83H529.066C529.066 83 531.866 69.56 533.146 63.48C533.706 60.68 532.586 58.68 529.626 58.68H509.706L504.426 83H495.866L507.946 27H532.026C543.386 27 548.186 34.52 546.426 42.6C544.666 51.08 536.666 53.08 534.026 53.48L533.706 54.76ZM570.58 76.12C583.62 76.12 591.54 64.44 593.7 54.28C595.7 44.92 593.3 33.88 580.98 33.88C567.94 33.88 560.02 45.56 557.86 55.64C555.86 65.08 558.18 76.12 570.58 76.12ZM581.3 26.04C600.5 26.04 604.98 41.96 602.02 55.72C599.3 68.68 588.9 83.96 570.34 83.96C551.14 83.96 546.66 68.04 549.46 54.44C552.34 41.32 562.74 26.04 581.3 26.04Z" fill="#170FFF"/>
</svg>
