<svg width="691" height="193" viewBox="0 0 691 193" fill="none" xmlns="http://www.w3.org/2000/svg">
<path fill-rule="evenodd" clip-rule="evenodd" d="M344.816 100.228C326.349 100.228 313.394 87.4701 313.394 68.5698C313.394 50.772 326.349 37.7781 344.816 37.7781C363.283 37.7781 375.608 50.7327 375.608 68.5698C375.608 87.4701 362.85 100.228 344.816 100.228ZM344.58 137.635C384.27 137.635 413.093 108.615 413.093 68.9242C413.093 29.2336 384.31 0.410645 344.58 0.410645C304.85 0.410645 275.869 29.1942 275.869 68.9242C275.869 108.654 304.653 137.635 344.58 137.635ZM3.15235 134.012H42.9216V46.2763L101.95 39.954L56.0338 70.9719L78.4385 101.291L125.571 64.1993V37.4239V23.9968V4.19092L3.15235 12.9323V50.536V134.012ZM257.754 184.139V164.885H262.479V184.139H257.754ZM260.077 160.711C258.424 160.711 257.518 159.569 257.518 158.152C257.518 156.695 258.424 155.553 260.077 155.553C261.731 155.553 262.637 156.734 262.637 158.152C262.637 159.569 261.731 160.711 260.077 160.711ZM270.945 174.571C270.945 177.446 272.638 179.611 275.591 179.611C278.544 179.611 280.238 177.485 280.238 174.571C280.238 171.657 278.544 169.492 275.591 169.492C272.638 169.492 270.945 171.697 270.945 174.571ZM275.591 184.139C270.079 184.139 266.574 179.729 266.574 174.571C266.574 169.374 270.079 164.963 275.591 164.963C281.104 164.963 284.608 169.452 284.608 174.571C284.608 179.69 281.104 184.139 275.591 184.139ZM62.3698 157.44H57.2904L48.9822 178.23L40.2013 157.44H35.0431L46.2258 184.018H51.5415L62.3698 157.44ZM75.4425 184.294C79.1044 184.294 82.3725 182.758 84.7351 180.317L81.6639 176.694C80.207 178.151 77.6475 179.096 75.4425 179.096C70.3237 179.096 67.1343 175.355 67.1343 170.709C67.1343 166.063 70.3237 162.322 75.4425 162.361C77.6475 162.361 80.207 163.267 81.6639 164.724L84.7351 161.101C82.4119 158.66 79.1044 157.124 75.4425 157.124C67.4492 157.124 62.3303 163.267 62.3303 170.709C62.3303 178.151 67.4492 184.294 75.4425 184.294ZM21.9714 157.441H17.1677V167.994H4.80371V157.441H0V184.02H4.80371V172.759H17.1677V184.02H21.9714V157.441ZM26.8148 157.441V184.02H31.6185V157.441H26.8148ZM93.3549 179.138H97.0562V179.098C101.703 179.098 105.522 175.358 105.522 170.672C105.522 165.986 101.703 162.246 97.0562 162.246H93.3549V179.138ZM97.1745 184.02H88.5118V183.981V157.402H97.1745C104.498 157.402 110.444 163.348 110.444 170.711C110.444 178.075 104.459 184.02 97.1745 184.02ZM123.084 184.02V157.442H127.887V184.02H123.084ZM145.961 184.02V174.098C145.961 171.499 144.622 169.727 141.511 169.727C139.149 169.727 137.219 171.617 137.338 174.177V184.02H132.534V165.081H137.338V167.64C138.322 165.789 140.724 165.081 142.063 165.081C146.473 165.081 150.765 167.404 150.765 173.271V184.02H145.961ZM167.542 181.97L163.998 178.427C163.487 178.938 163.408 178.978 162.975 178.978C162.187 178.978 161.754 178.545 161.754 177.521V169.37H166.912V164.921H161.754V157.794H156.753V164.921H153.406V169.37H156.753V177.521C156.753 180.907 159.746 184.018 162.975 184.018C164.865 184.018 166.361 183.112 167.542 181.97ZM181.836 172.835H172.582C172.976 170.315 175.024 169.173 177.386 169.173C179.749 169.173 181.521 170.512 181.836 172.835ZM168.172 174.568C168.172 179.726 171.519 184.097 177.386 184.097C183.608 184.097 185.379 179.844 185.379 179.844L181.127 178.033C181.127 178.033 180.497 179.844 177.386 179.844C174.748 179.844 173.212 178.584 172.582 176.576H186.285C186.285 176.576 186.482 172.953 185.379 170.079C185.372 170.066 185.357 170.034 185.335 169.985C185.007 169.266 183.024 164.921 177.386 164.921C171.362 164.921 168.172 169.331 168.172 174.528V174.568ZM194.282 164.961V168.19C195.582 165.828 198.299 164.922 199.677 164.922V169.45C196.251 169.45 194.282 172.246 194.282 174.569V183.98H189.479V164.961H194.282ZM205.741 174.727C205.741 177.601 207.198 179.727 210.387 179.727C212.828 179.727 215.033 177.641 215.033 174.727C214.994 171.813 212.828 169.726 210.387 169.726C207.198 169.726 205.741 171.852 205.741 174.727ZM209.915 184.295C204.166 184.295 200.897 179.885 200.897 174.727V174.648C200.897 169.529 204.166 165.119 209.915 165.119C211.923 165.119 213.892 166.025 215.309 167.797V165.08H220.113V183.98H215.309V181.617C213.892 183.389 211.883 184.295 209.915 184.295ZM232.392 179.411C229.006 179.411 227.431 177.088 227.431 174.213C227.431 171.339 229.006 168.976 232.392 168.976C233.77 168.976 234.991 169.606 235.897 170.512L239.322 167.165C237.59 165.393 235.188 164.251 232.51 164.251C226.446 164.251 222.863 168.74 222.863 174.213C222.863 179.686 226.446 184.136 232.51 184.136C235.188 184.136 237.59 182.994 239.322 181.222L235.897 177.875C234.991 178.781 233.77 179.411 232.392 179.411ZM254.915 181.97L251.371 178.426C250.859 178.938 250.78 178.977 250.347 178.977C249.56 178.977 249.127 178.544 249.127 177.521V169.37H254.285V164.92H249.127V157.793H244.126V164.92H240.779V169.37H244.126V177.521C244.126 180.907 247.119 184.018 250.347 184.018C252.237 184.018 253.734 183.112 254.915 181.97ZM301.103 174.098V184.02H305.907V173.271C305.907 167.404 301.615 165.081 297.205 165.081C295.866 165.081 293.464 165.789 292.479 167.64V165.081H287.676V184.02H292.479V174.176C292.361 171.617 294.291 169.727 296.653 169.727C299.764 169.727 301.103 171.499 301.103 174.098ZM326.933 179.138H323.232V162.245H326.933C331.579 162.245 335.399 165.986 335.399 170.672C335.399 175.358 331.579 179.098 326.933 179.098V179.138ZM318.389 184.02H327.051C334.336 184.02 340.321 178.075 340.321 170.711C340.321 163.348 334.375 157.402 327.051 157.402H318.389V183.981V184.02ZM346.975 172.837H356.228C355.913 170.513 354.141 169.175 351.779 169.175C349.416 169.175 347.369 170.317 346.975 172.837ZM351.739 184.098C345.872 184.098 342.526 179.727 342.526 174.569V174.53C342.526 169.332 345.715 164.922 351.739 164.922C357.377 164.922 359.36 169.267 359.688 169.986L359.712 170.039C359.718 170.05 359.722 170.059 359.725 170.066L359.73 170.076L359.733 170.08C360.835 172.955 360.638 176.577 360.638 176.577H346.936C347.566 178.585 349.101 179.846 351.739 179.846C354.85 179.846 355.48 178.034 355.48 178.034L359.733 179.846C359.733 179.846 357.961 184.098 351.739 184.098ZM374.389 171.421L374.416 171.402L374.428 171.421H374.389ZM374.416 171.402L378.169 168.744C377.696 167.956 376.909 167.05 375.806 166.302C373.798 165.003 371.357 164.767 369.9 164.924C368.049 165.121 365.451 165.909 364.387 168.271C363.482 170.397 364.033 172.799 365.254 174.177C365.529 174.532 366.159 175.083 366.986 175.595C367.604 176.02 367.957 176.142 369.049 176.518L369.112 176.54L370.451 176.934C371.116 177.127 371.612 177.267 371.992 177.375C373.008 177.663 373.2 177.718 373.601 177.918C373.877 178.115 374.034 178.469 373.759 178.863C373.601 179.06 373.365 179.218 373.168 179.336C372.735 179.533 372.499 179.572 371.987 179.651C370.727 179.651 370.018 179.532 368.719 178.745C367.892 178.233 367.537 177.564 367.262 177.012L363.364 179.375C363.56 179.848 364.899 181.974 366.396 182.919C368.286 184.061 370.136 184.533 372.262 184.297C373.207 184.218 374.349 183.903 375.255 183.431C376.397 182.801 377.342 182.092 378.011 180.871C379.232 178.548 378.445 176.186 377.263 174.965C376.555 174.099 375.373 173.39 372.026 172.445L370.727 172.09C370.335 171.951 370.004 171.791 369.689 171.64C369.561 171.578 369.435 171.518 369.309 171.461C369.232 171.406 369.156 171.357 369.083 171.311C368.895 171.192 368.736 171.091 368.679 170.949C368.522 170.673 368.522 170.397 368.679 170.082C368.955 169.728 369.467 169.531 370.176 169.531C371.081 169.531 372.341 169.688 373.404 170.358C373.946 170.745 374.184 171.018 374.416 171.402ZM382.776 164.885V184.139H387.501V164.885H382.776ZM382.579 158.152C382.579 159.569 383.485 160.711 385.138 160.711C386.792 160.711 387.698 159.569 387.698 158.152C387.698 156.734 386.792 155.553 385.138 155.553C383.485 155.553 382.579 156.695 382.579 158.152ZM401.007 179.454C397.935 179.454 396.518 177.328 396.518 174.493C396.518 171.657 397.935 169.649 401.007 169.649C403.448 169.649 405.574 171.776 405.574 174.493C405.574 177.209 403.448 179.454 401.007 179.454ZM391.596 174.493C391.596 180.044 394.864 184.061 400.613 184.061C402.07 184.061 404.236 183.549 406.007 181.383V183.588C406.007 187.014 402.148 188.038 400.495 188.038C399.51 188.038 397.227 187.644 396.006 185.714L391.911 188.431C393.683 191.07 397.148 192.645 400.495 192.645C405.692 192.645 410.811 189.416 410.851 182.879V164.924H406.007V167.602C404.432 165.475 402.03 164.963 400.613 164.963C394.864 164.963 391.596 169.019 391.596 174.493ZM428.806 174.099V184.021H433.61V173.272C433.61 167.405 429.318 165.082 424.908 165.082C423.569 165.082 421.167 165.79 420.183 167.641V165.082H415.379V184.021H420.183V174.177C420.064 171.618 421.994 169.728 424.356 169.728C427.467 169.728 428.806 171.5 428.806 174.099ZM472.237 169.137H459.873V173.784H466.961C465.898 178.312 462.315 179.414 459.204 179.454C453.77 179.454 450.581 175.674 450.581 170.752C450.581 165.83 453.77 162.05 459.204 162.05C464.638 162.05 466.409 165.948 466.409 165.948L470.662 163.585C470.662 163.585 467.945 157.207 459.243 157.207C450.541 157.207 445.855 163.192 445.855 170.752C445.855 178.312 450.778 184.336 459.243 184.336C466.646 184.336 471.41 180.123 472.198 172.799C472.198 172.799 472.395 170.122 472.198 169.177L472.237 169.137ZM480.107 164.961V168.19C481.406 165.828 484.123 164.922 485.501 164.922V169.45C482.076 169.45 480.107 172.246 480.107 174.569V183.98H475.303V164.961H480.107ZM491.093 174.569C491.093 177.443 492.786 179.609 495.739 179.609C498.692 179.609 500.385 177.483 500.385 174.569C500.385 171.655 498.692 169.49 495.739 169.49C492.786 169.49 491.093 171.695 491.093 174.569ZM495.778 184.137C490.266 184.137 486.762 179.727 486.762 174.569C486.762 169.372 490.266 164.961 495.778 164.961C501.291 164.961 504.795 169.45 504.795 174.569C504.795 179.688 501.291 184.137 495.778 184.137ZM513.025 175V165.078H508.26V175.788C508.26 181.655 512.513 184.017 516.923 184.017C518.34 184.017 520.664 183.348 521.687 181.458V184.017H526.452V165.038H521.687V174.922C521.766 177.481 519.915 179.332 517.474 179.332C514.363 179.332 513.025 177.56 513.025 175ZM540.666 179.765C538.107 179.765 535.862 177.442 535.862 174.488C535.862 171.535 538.146 169.251 540.666 169.251C543.659 169.251 545.47 171.575 545.47 174.488C545.47 177.402 543.62 179.765 540.666 179.765ZM530.823 192.719H535.626V181.379C537.004 183.702 540.154 184.057 541.1 184.057C546.573 184.057 550.156 179.607 550.156 174.449C550.156 169.291 546.573 164.881 541.1 164.881C540.194 164.881 537.004 165.393 535.626 167.519V164.881H530.823V192.719ZM573.781 170.629H567.048V162.361H573.781C576.065 162.361 577.916 164.211 577.916 166.456C577.916 168.7 576.026 170.59 573.781 170.59V170.629ZM562.244 184.017H567.048V175.591H573.663C578.703 175.591 582.72 171.496 582.72 166.534C582.72 161.573 578.703 157.478 573.663 157.478H562.205V184.057L562.244 184.017ZM590.831 170.709H597.682V170.67C599.926 170.67 601.777 168.701 601.777 166.457C601.777 164.212 599.966 162.362 597.682 162.362H590.831V170.709ZM590.831 184.018H586.184H586.145V157.44H598.273C602.84 157.44 606.542 161.141 606.542 166.339C606.266 170.827 603.943 173.229 601.029 174.804L607.802 184.018H601.895L595.713 175.592H590.831V184.018ZM613.944 170.709C613.944 175.592 617.331 179.451 622.567 179.451C627.804 179.451 631.191 175.552 631.191 170.709C631.191 165.866 627.804 162.007 622.567 162.007C617.331 162.007 613.944 165.827 613.944 170.709ZM622.567 184.294C614.653 184.294 609.18 178.191 609.18 170.709C609.18 163.267 614.653 157.125 622.567 157.125C630.482 157.125 635.955 163.228 635.955 170.709C635.955 178.191 630.482 184.294 622.567 184.294ZM637.333 157.44H656.549V162.165H649.422V184.018H644.578V162.165H637.333V157.44ZM669.855 179.451C664.618 179.451 661.232 175.592 661.232 170.709C661.232 165.827 664.618 162.007 669.855 162.007C675.092 162.007 678.478 165.866 678.478 170.709C678.478 175.552 675.092 179.451 669.855 179.451ZM656.467 170.709C656.467 178.191 661.941 184.294 669.855 184.294C677.77 184.294 683.243 178.191 683.243 170.709C683.243 163.228 677.77 157.125 669.855 157.125C661.941 157.125 656.467 163.267 656.467 170.709ZM140.491 12.9303V12.9316H140.488V15.2028L140.451 51.0459L140.488 51.0416V134.012H179.509V46.4962L231.466 40.444L191.563 69.6723V69.6728L210.739 94.9914L210.739 94.991L243.932 138.816L274.252 116.569L237.704 75.4607L260.155 59.1989V19.4295L260.135 19.4445L260.153 4.22837L140.491 12.9303ZM591.261 68.5698C591.261 87.4701 604.216 100.228 622.683 100.228C640.717 100.228 653.475 87.4701 653.475 68.5698C653.475 50.7327 641.15 37.7781 622.683 37.7781C604.216 37.7781 591.261 50.772 591.261 68.5698ZM691 68.9242C691 108.615 662.177 137.635 622.486 137.635C582.559 137.635 553.776 108.654 553.776 68.9242C553.776 29.1942 582.756 0.410645 622.486 0.410645C662.216 0.410645 691 29.2336 691 68.9242ZM544.289 44.5898V4.38732L422.539 12.2624V51.9924L462.426 49.5672V134.051H504.361V47.0175L544.289 44.5898Z" fill="#170FFF"/>
</svg>
