<svg width="282" height="73" viewBox="0 0 282 73" fill="none" xmlns="http://www.w3.org/2000/svg">
<g clip-path="url(#clip0_498_5553)">
<path d="M-0.0117188 36.4917L11.0598 0H25.1084L14.037 36.4917H-0.0117188Z" fill="#170FFF"/>
<path d="M28.209 36.4917L39.2805 0H53.3291L42.2577 36.4917H28.209Z" fill="#170FFF"/>
<path d="M140.697 36.4917L151.769 0H165.817L154.746 36.4917H140.697Z" fill="#170FFF"/>
<path d="M168.787 36.4917L179.859 0H193.907L182.836 36.4917H168.787Z" fill="#170FFF"/>
<path d="M197.008 36.4917L208.079 0H222.128L211.057 36.4917H197.008Z" fill="#170FFF"/>
<path d="M56.2988 36.4917L67.3703 0H81.419L70.3475 36.4917H56.2988Z" fill="#170FFF"/>
<path d="M84.3867 36.4917L95.4582 0H109.507L98.4354 36.4917H84.3867Z" fill="#170FFF"/>
<path d="M112.609 36.4917L123.681 0H137.73L126.658 36.4917H112.609Z" fill="#170FFF"/>
<path d="M225.096 36.4917L236.167 0H250.216L239.144 36.4917H225.096Z" fill="#170FFF"/>
<path d="M253.184 36.4917L264.255 0H278.304L267.232 36.4917H253.184Z" fill="#170FFF"/>
<path d="M2.95703 73L14.0285 36.5083H28.0772L17.0057 73H2.95703Z" fill="#EAEBEC"/>
<path d="M31.1797 73L42.2512 36.5083H56.2998L45.2284 73H31.1797Z" fill="#EAEBEC"/>
<path d="M143.666 73L154.738 36.5083H168.786L157.715 73H143.666Z" fill="#EAEBEC"/>
<path d="M171.754 73L182.825 36.5083H196.874L185.803 73H171.754Z" fill="#EAEBEC"/>
<path d="M199.977 73L211.048 36.5083H225.097L214.025 73H199.977Z" fill="#EAEBEC"/>
<path d="M59.2676 73L70.3391 36.5083H84.3877L73.3163 73H59.2676Z" fill="#EAEBEC"/>
<path d="M87.3555 73L98.427 36.5083H112.476L101.404 73H87.3555Z" fill="#EAEBEC"/>
<path d="M115.576 73L126.648 36.5083H140.696L129.625 73H115.576Z" fill="#EAEBEC"/>
<path d="M228.064 73L239.136 36.5083H253.185L242.113 73H228.064Z" fill="#EAEBEC"/>
<path d="M256.154 73L267.226 36.5083H281.274L270.203 73H256.154Z" fill="#EAEBEC"/>
</g>
<defs>
<clipPath id="clip0_498_5553">
<rect width="281.4" height="72.8447" fill="white"/>
</clipPath>
</defs>
</svg>
