<svg width="1875" height="117" viewBox="0 0 1875 117" fill="none" xmlns="http://www.w3.org/2000/svg">
<g clip-path="url(#clip0_502_7323)">
<rect width="1875" height="116.5" fill="#170FFF"/>
<path d="M1875 -1H0V116.668H1875V-1Z" fill="#170FFF"/>
<path d="M171.723 46.7217H250.98V66.1448H171.723H92.4648V46.7217H171.723Z" fill="#00CF71"/>
<path d="M258.451 57.8936L235.745 116.789H214.172L236.884 57.8936H258.451Z" fill="#00CF71"/>
<path d="M214.172 -0.998047H235.745L258.451 57.8919H236.884L214.172 -0.998047Z" fill="#00CF71"/>
<path d="M818.939 58.4434L841.651 117.339H863.225L840.513 58.4434H818.939Z" fill="#00CF71"/>
<path d="M863.225 -0.452148H841.651L818.939 58.4434H840.513L863.225 -0.452148Z" fill="#00CF71"/>
<path d="M1115.78 46.7217H1193.89V66.1448H1115.78H1037.66V46.7217H1115.78Z" fill="#00CF71"/>
<path d="M900.616 48.7285H970.334V68.1578H900.616H830.904V48.7285H900.616Z" fill="#00CF71"/>
<path d="M1201.36 57.8936L1178.65 116.789H1157.07L1179.79 57.8936H1201.36Z" fill="#00CF71"/>
<path d="M1157.07 -0.998047H1178.65L1201.36 57.8919H1179.79L1157.07 -0.998047Z" fill="#00CF71"/>
<path d="M1828.81 48.7285H1875.86V68.1578H1828.81H1781.75V48.7285H1828.81Z" fill="#00CF71"/>
<path d="M1761.85 58.4434L1784.56 117.339H1806.13L1783.42 58.4434H1761.85Z" fill="#00CF71"/>
<path d="M1806.13 -0.451172H1784.56L1761.85 58.4444H1783.42L1806.13 -0.451172Z" fill="#00CF71"/>
<path d="M589.006 116.786H567.438L544.727 57.8906H566.3L589.006 116.786Z" fill="#EAEBEC"/>
<path d="M522.02 -1H543.593L566.299 57.89H544.731L522.02 -1Z" fill="#EAEBEC"/>
<path d="M362.451 116.786H340.884L318.172 57.8906H339.745L362.451 116.786Z" fill="#EAEBEC"/>
<path d="M295.465 -1H317.038L339.744 57.89H318.177L295.465 -1Z" fill="#EAEBEC"/>
<path d="M499.029 57.8906L476.317 116.786H454.744L477.456 57.8906H499.029Z" fill="#EAEBEC"/>
<path d="M454.744 -1H476.317L499.029 57.89H477.456L454.744 -1Z" fill="#EAEBEC"/>
<path d="M44.8458 57.8906L22.1397 116.786H0.566406L23.2782 57.8906H44.8458Z" fill="#EAEBEC"/>
<path d="M0.566406 -1H22.1397L44.8458 57.89H23.2782L0.566406 -1Z" fill="#EAEBEC"/>
<path d="M81.8145 57.89L104.526 -1H126.094L103.388 57.89H81.8145Z" fill="#EAEBEC"/>
<path d="M126.094 116.786H104.526L81.8145 57.8906H103.388L126.094 116.786Z" fill="#EAEBEC"/>
<path d="M793.959 57.89L771.247 -1H749.68L772.386 57.89H793.959Z" fill="#EAEBEC"/>
<path d="M749.68 116.786H771.247L793.959 57.8906H772.386L749.68 116.786Z" fill="#EAEBEC"/>
<path d="M744.797 116.786H723.224L700.518 57.8906H722.085L744.797 116.786Z" fill="#EAEBEC"/>
<path d="M677.811 -1H699.378L722.09 57.89H700.517L677.811 -1Z" fill="#EAEBEC"/>
<path d="M680.09 58.4092L657.378 117.305H635.805L658.516 58.4092H680.09Z" fill="#EAEBEC"/>
<path d="M635.805 -0.486328H657.378L680.09 58.4092H658.516L635.805 -0.486328Z" fill="#EAEBEC"/>
<path d="M1531.91 116.786H1510.34L1487.63 57.8906H1509.21L1531.91 116.786Z" fill="#EAEBEC"/>
<path d="M1464.93 -1H1486.5L1509.21 57.89H1487.64L1464.93 -1Z" fill="#EAEBEC"/>
<path d="M1305.36 116.786H1283.79L1261.08 57.8906H1282.65L1305.36 116.786Z" fill="#EAEBEC"/>
<path d="M1238.37 -1H1259.95L1282.65 57.89H1261.08L1238.37 -1Z" fill="#EAEBEC"/>
<path d="M1441.94 57.8906L1419.23 116.786H1397.65L1420.36 57.8906H1441.94Z" fill="#EAEBEC"/>
<path d="M1397.65 -1H1419.23L1441.94 57.89H1420.36L1397.65 -1Z" fill="#EAEBEC"/>
<path d="M991.906 57.8906L969.195 116.786H947.627L970.333 57.8906H991.906Z" fill="#EAEBEC"/>
<path d="M947.627 -1H969.195L991.906 57.89H970.333L947.627 -1Z" fill="#EAEBEC"/>
<path d="M1024.72 57.89L1047.43 -1H1069.01L1046.3 57.89H1024.72Z" fill="#EAEBEC"/>
<path d="M1069.01 116.786H1047.43L1024.72 57.8906H1046.3L1069.01 116.786Z" fill="#EAEBEC"/>
<path d="M1736.86 57.89L1714.16 -1H1692.58L1715.29 57.89H1736.86Z" fill="#EAEBEC"/>
<path d="M1692.58 116.786H1714.16L1736.86 57.8906H1715.29L1692.58 116.786Z" fill="#EAEBEC"/>
<path d="M1687.71 116.786H1666.13L1643.43 57.8906H1664.99L1687.71 116.786Z" fill="#EAEBEC"/>
<path d="M1620.72 -1H1642.29L1665 57.89H1643.42L1620.72 -1Z" fill="#EAEBEC"/>
<path d="M1623 58.4082L1600.28 117.304H1578.72L1601.42 58.4082H1623Z" fill="#EAEBEC"/>
<path d="M1578.72 -0.487305H1600.28L1623 58.4083H1601.42L1578.72 -0.487305Z" fill="#EAEBEC"/>
</g>
<defs>
<clipPath id="clip0_502_7323">
<rect width="1875" height="116.5" fill="white"/>
</clipPath>
</defs>
</svg>
