<svg width="1875" height="117" viewBox="0 0 1875 117" fill="none" xmlns="http://www.w3.org/2000/svg">
<g clip-path="url(#clip0_502_7168)">
<path d="M1875 -1H0V116.668H1875V-1Z" fill="#EAEBEC"/>
<path d="M217.671 47.7568H295.876V67.1861H217.671H139.461V47.7568H217.671Z" fill="#170FFF"/>
<path d="M303.346 58.9326L280.64 117.828H259.066L281.778 58.9326H303.346Z" fill="#170FFF"/>
<path d="M259.066 0.0371094H280.64L303.346 58.9327H281.778L259.066 0.0371094Z" fill="#170FFF"/>
<path d="M853.05 47.21H923.764V66.6336H853.05H782.336V47.21H853.05Z" fill="#170FFF"/>
<path d="M931.238 58.3799L908.526 117.275H886.953L909.665 58.3799H931.238Z" fill="#170FFF"/>
<path d="M886.953 -0.514648H908.526L931.238 58.3809H909.665L886.953 -0.514648Z" fill="#170FFF"/>
<path d="M1160.58 47.7568H1238.78V67.1861H1160.58H1082.38V47.7568H1160.58Z" fill="#170FFF"/>
<path d="M1246.26 58.9326L1223.55 117.828H1201.97L1224.69 58.9326H1246.26Z" fill="#170FFF"/>
<path d="M1201.97 0.0371094H1223.55L1246.26 58.9327H1224.69L1201.97 0.0371094Z" fill="#170FFF"/>
<path d="M1795.43 47.21H1866.67V66.6336H1795.43H1724.18V47.21H1795.43Z" fill="#170FFF"/>
<path d="M1874.15 58.3809L1851.43 117.276H1829.87L1852.57 58.3809H1874.15Z" fill="#170FFF"/>
<path d="M1829.87 -0.514648H1851.43L1874.15 58.3809H1852.57L1829.87 -0.514648Z" fill="#170FFF"/>
<path d="M589.115 116.791H567.542L544.83 57.8955H566.403L589.115 116.791Z" fill="#00CF71"/>
<path d="M522.123 -1H543.696L566.408 57.8956H544.835L522.123 -1Z" fill="#00CF71"/>
<path d="M339.744 58.9336L317.038 117.829H295.465L318.177 58.9336H339.744Z" fill="#00CF71"/>
<path d="M295.465 0.0371094H317.038L339.744 58.9327H318.177L295.465 0.0371094Z" fill="#00CF71"/>
<path d="M117.891 58.9327L140.597 0.0371094H162.17L139.458 58.9327H117.891Z" fill="#00CF71"/>
<path d="M162.17 117.829H140.597L117.891 58.9336H139.458L162.17 117.829Z" fill="#00CF71"/>
<path d="M432.289 58.4131L455.001 -0.482422H476.574L453.862 58.4131H432.289Z" fill="#00CF71"/>
<path d="M476.574 117.309H455.001L432.289 58.4131H453.862L476.574 117.309Z" fill="#00CF71"/>
<path d="M44.8458 58.3809L22.1397 117.276H0.566406L23.2782 58.3809H44.8458Z" fill="#00CF71"/>
<path d="M0.566406 -0.515625H22.1397L44.8458 58.3799H23.2782L0.566406 -0.515625Z" fill="#00CF71"/>
<path d="M81.8145 58.3799L104.526 -0.515625H126.094L103.388 58.3799H81.8145Z" fill="#00CF71"/>
<path d="M126.094 117.276H104.526L81.8145 58.3809H103.388L126.094 117.276Z" fill="#00CF71"/>
<path d="M657.135 117.829H635.562L612.855 58.9336H634.423L657.135 117.829Z" fill="#00CF71"/>
<path d="M590.152 0.0371094H611.72L634.432 58.9327H612.858L590.152 0.0371094Z" fill="#00CF71"/>
<path d="M722.076 58.9336L699.37 117.829H677.797L700.509 58.9336H722.076Z" fill="#00CF71"/>
<path d="M677.797 0.0371094H699.37L722.076 58.9327H700.509L677.797 0.0371094Z" fill="#00CF71"/>
<path d="M793.623 58.3809L770.911 117.276H749.344L772.05 58.3809H793.623Z" fill="#00CF71"/>
<path d="M749.344 -0.515625H770.911L793.623 58.3799H772.05L749.344 -0.515625Z" fill="#00CF71"/>
<path d="M1532.02 116.791H1510.45L1487.74 57.8955H1509.31L1532.02 116.791Z" fill="#00CF71"/>
<path d="M1465.03 -1H1486.6L1509.31 57.8956H1487.74L1465.03 -1Z" fill="#00CF71"/>
<path d="M1282.65 58.9336L1259.95 117.829H1238.37L1261.08 58.9336H1282.65Z" fill="#00CF71"/>
<path d="M1238.37 0.0371094H1259.95L1282.65 58.9327H1261.08L1238.37 0.0371094Z" fill="#00CF71"/>
<path d="M1060.8 58.9327L1083.5 0.0371094H1105.08L1082.37 58.9327H1060.8Z" fill="#00CF71"/>
<path d="M1105.08 117.829H1083.5L1060.8 58.9336H1082.37L1105.08 117.829Z" fill="#00CF71"/>
<path d="M1375.2 58.4131L1397.91 -0.482422H1419.48L1396.77 58.4131H1375.2Z" fill="#00CF71"/>
<path d="M1419.48 117.309H1397.91L1375.2 58.4131H1396.77L1419.48 117.309Z" fill="#00CF71"/>
<path d="M991.906 58.3809L969.195 117.276H947.627L970.333 58.3809H991.906Z" fill="#00CF71"/>
<path d="M947.627 -0.515625H969.195L991.906 58.3799H970.333L947.627 -0.515625Z" fill="#00CF71"/>
<path d="M1024.72 58.3799L1047.43 -0.515625H1069.01L1046.3 58.3799H1024.72Z" fill="#00CF71"/>
<path d="M1069.01 117.276H1047.43L1024.72 58.3809H1046.3L1069.01 117.276Z" fill="#00CF71"/>
<path d="M1600.04 117.829H1578.47L1555.76 58.9336H1577.33L1600.04 117.829Z" fill="#00CF71"/>
<path d="M1533.05 0.0371094H1554.62L1577.33 58.9327H1555.76L1533.05 0.0371094Z" fill="#00CF71"/>
<path d="M1664.99 58.9336L1642.28 117.829H1620.71L1643.42 58.9336H1664.99Z" fill="#00CF71"/>
<path d="M1620.71 0.0371094H1642.28L1664.99 58.9327H1643.42L1620.71 0.0371094Z" fill="#00CF71"/>
<path d="M1736.53 58.3809L1713.82 117.276H1692.25L1714.95 58.3809H1736.53Z" fill="#00CF71"/>
<path d="M1692.25 -0.515625H1713.82L1736.53 58.3799H1714.95L1692.25 -0.515625Z" fill="#00CF71"/>
</g>
<defs>
<clipPath id="clip0_502_7168">
<rect width="1874.5" height="116.5" fill="white"/>
</clipPath>
</defs>
</svg>
