<svg width="1875" height="117" viewBox="0 0 1875 117" fill="none" xmlns="http://www.w3.org/2000/svg">
<g clip-path="url(#clip0_502_7221)">
<rect width="1875" height="116.5" fill="#26252E"/>
<path d="M1875 -1H0V116.668H1875V-1Z" fill="#26252E"/>
<path d="M361.838 47.501H280.521V66.9246H361.838H443.16V47.501H361.838Z" fill="#04CB7A"/>
<path d="M522.049 116.791H543.623L566.33 57.8955H544.762L522.049 116.791Z" fill="#EDEEEF"/>
<path d="M589.037 -1H567.469L544.756 57.8956H566.33L589.037 -1Z" fill="#EDEEEF"/>
<path d="M432.258 58.4131L454.965 117.303H476.539L453.826 58.4131H432.258Z" fill="#EDEEEF"/>
<path d="M476.539 -0.482422H454.965L432.258 58.4132H453.826L476.539 -0.482422Z" fill="#EDEEEF"/>
<path d="M213.832 117.303H235.406L258.113 58.4131H236.545L213.832 117.303Z" fill="#EDEEEF"/>
<path d="M280.822 -0.482422H259.254L236.541 58.4132H258.115L280.822 -0.482422Z" fill="#EDEEEF"/>
<path d="M207.395 117.303H185.826L163.113 58.4131H184.688L207.395 117.303Z" fill="#EDEEEF"/>
<path d="M140.404 -0.482422H161.979L184.686 58.4132H163.117L140.404 -0.482422Z" fill="#EDEEEF"/>
<path d="M81.8223 57.8955L104.535 116.791H126.104L103.397 57.8955H81.8223Z" fill="#EDEEEF"/>
<path d="M126.104 -1H104.535L81.8223 57.8956H103.397L126.104 -1Z" fill="#EDEEEF"/>
<path d="M44.8518 57.8956L22.1447 -1H0.570312L23.2831 57.8956H44.8518Z" fill="#EDEEEF"/>
<path d="M0.570312 116.791H22.1447L44.8518 57.8955H23.2831L0.570312 116.791Z" fill="#EDEEEF"/>
<path d="M272.977 58.6719L295.684 117.568H317.258L294.545 58.6719H272.977Z" fill="#04CB7A"/>
<path d="M317.258 -0.224609H295.684L272.977 58.671H294.545L317.258 -0.224609Z" fill="#04CB7A"/>
<path d="M841.627 117.303H863.196L885.908 58.4131H864.334L841.627 117.303Z" fill="#EDEEEF"/>
<path d="M908.619 -0.482422H887.045L864.332 58.4132H885.906L908.619 -0.482422Z" fill="#EDEEEF"/>
<path d="M727.242 58.4131L749.955 117.303H771.524L748.816 58.4131H727.242Z" fill="#EDEEEF"/>
<path d="M771.524 -0.482422H749.955L727.242 58.4132H748.816L771.524 -0.482422Z" fill="#EDEEEF"/>
<path d="M722.57 58.4132L699.857 -0.482422H678.283L700.996 58.4132H722.57Z" fill="#EDEEEF"/>
<path d="M678.283 117.303H699.857L722.57 58.4131H700.996L678.283 117.303Z" fill="#EDEEEF"/>
<path d="M680.127 58.4132L657.414 -0.482422H635.84L658.553 58.4132H680.127Z" fill="#EDEEEF"/>
<path d="M635.84 117.303H657.414L680.127 58.4131H658.553L635.84 117.303Z" fill="#EDEEEF"/>
<path d="M1304.79 47.501H1223.47V66.9246H1304.79H1386.11V47.501H1304.79Z" fill="#04CB7A"/>
<path d="M1465 116.791H1486.57L1509.29 57.8955H1487.71L1465 116.791Z" fill="#EDEEEF"/>
<path d="M1531.99 -1H1510.42L1487.71 57.8956H1509.28L1531.99 -1Z" fill="#EDEEEF"/>
<path d="M1375.21 58.4131L1397.92 117.303H1419.49L1396.78 58.4131H1375.21Z" fill="#EDEEEF"/>
<path d="M1419.49 -0.482422H1397.92L1375.21 58.4132H1396.78L1419.49 -0.482422Z" fill="#EDEEEF"/>
<path d="M1156.78 117.303H1178.36L1201.06 58.4131H1179.5L1156.78 117.303Z" fill="#EDEEEF"/>
<path d="M1223.77 -0.482422H1202.2L1179.49 58.4132H1201.06L1223.77 -0.482422Z" fill="#EDEEEF"/>
<path d="M1150.35 117.303H1128.78L1106.07 58.4131H1127.64L1150.35 117.303Z" fill="#EDEEEF"/>
<path d="M1083.36 -0.482422H1104.93L1127.64 58.4132H1106.07L1083.36 -0.482422Z" fill="#EDEEEF"/>
<path d="M1024.78 57.8955L1047.49 116.791H1069.06L1046.35 57.8955H1024.78Z" fill="#EDEEEF"/>
<path d="M1069.06 -1H1047.49L1024.78 57.8956H1046.35L1069.06 -1Z" fill="#EDEEEF"/>
<path d="M991.959 57.8956L969.246 -1H947.678L970.385 57.8956H991.959Z" fill="#EDEEEF"/>
<path d="M947.678 116.791H969.246L991.959 57.8955H970.385L947.678 116.791Z" fill="#EDEEEF"/>
<path d="M1215.93 58.6719L1238.63 117.568H1260.21L1237.49 58.6719H1215.93Z" fill="#04CB7A"/>
<path d="M1260.21 -0.224609H1238.63L1215.93 58.671H1237.49L1260.21 -0.224609Z" fill="#04CB7A"/>
<path d="M1784.58 117.303H1806.15L1828.86 58.4131H1807.29L1784.58 117.303Z" fill="#EDEEEF"/>
<path d="M1851.57 -0.482422H1830L1807.29 58.4132H1828.86L1851.57 -0.482422Z" fill="#EDEEEF"/>
<path d="M1670.2 58.4131L1692.91 117.303H1714.48L1691.77 58.4131H1670.2Z" fill="#EDEEEF"/>
<path d="M1714.48 -0.482422H1692.91L1670.2 58.4132H1691.77L1714.48 -0.482422Z" fill="#EDEEEF"/>
<path d="M1665.52 58.4132L1642.81 -0.482422H1621.24L1643.95 58.4132H1665.52Z" fill="#EDEEEF"/>
<path d="M1621.24 117.303H1642.81L1665.52 58.4131H1643.95L1621.24 117.303Z" fill="#EDEEEF"/>
<path d="M1623.08 58.4132L1600.37 -0.482422H1578.8L1601.5 58.4132H1623.08Z" fill="#EDEEEF"/>
<path d="M1578.8 117.303H1600.37L1623.08 58.4131H1601.5L1578.8 117.303Z" fill="#EDEEEF"/>
</g>
<defs>
<clipPath id="clip0_502_7221">
<rect width="1875" height="116.5" fill="white"/>
</clipPath>
</defs>
</svg>
