<svg width="38" height="30" viewBox="0 0 38 30" fill="none" xmlns="http://www.w3.org/2000/svg">
<path id="Vector (Stroke)" fill-rule="evenodd" clip-rule="evenodd" d="M0.699219 5.88606C0.699219 2.63528 3.31396 0 6.53941 0H32.1609C35.3864 0 38.0011 2.63528 38.0011 5.88606V24.1139C38.0011 27.3646 35.3864 29.9999 32.1609 29.9999H6.53941C3.31396 29.9999 0.699219 27.3646 0.699219 24.1139V5.88606ZM6.53941 2.65822C4.77062 2.65822 3.33673 4.10337 3.33673 5.88606V6.68507L17.6006 16.0607C18.6639 16.7596 20.0364 16.7596 21.0997 16.0607L35.3636 6.68507V5.88606C35.3636 4.10337 33.9297 2.65822 32.1609 2.65822H6.53941ZM35.3636 9.85864L22.5405 18.2872C20.6016 19.5617 18.0988 19.5617 16.1599 18.2872L3.33673 9.85864V24.1139C3.33673 25.8965 4.77062 27.3417 6.53941 27.3417H32.1609C33.9297 27.3417 35.3636 25.8965 35.3636 24.1139V9.85864Z" fill="#C4C8CF"/>
</svg>
