<svg width="182" height="51" viewBox="0 0 182 51" fill="none" xmlns="http://www.w3.org/2000/svg">
<path id="Union" fill-rule="evenodd" clip-rule="evenodd" d="M90.4044 26.1705C85.5626 26.1705 82.1661 22.8256 82.1661 17.8703C82.1661 13.204 85.5626 9.79715 90.4044 9.79715C95.2462 9.79715 98.4775 13.1936 98.4775 17.8703C98.4775 22.8256 95.1327 26.1705 90.4044 26.1705ZM90.3425 35.978C100.749 35.978 108.306 28.3694 108.306 17.9632C108.306 7.55692 100.759 0 90.3425 0C79.9259 0 72.3277 7.54659 72.3277 17.9632C72.3277 28.3798 79.8743 35.978 90.3425 35.978ZM0.825944 35.0282H11.2528V12.0252L26.729 10.3675L14.6906 18.5L20.5648 26.4492L32.9222 16.7243V9.70421V6.18383V0.991032L0.825944 3.28289V13.142V35.0282ZM67.5786 48.1706V43.1224H68.8175V48.1706H67.5786ZM68.1877 42.028C67.7541 42.028 67.5167 41.7286 67.5167 41.357C67.5167 40.975 67.7541 40.6756 68.1877 40.6756C68.6213 40.6756 68.8587 40.9853 68.8587 41.357C68.8587 41.7286 68.6213 42.028 68.1877 42.028ZM71.0371 45.6619C71.0371 46.4156 71.481 46.9834 72.2553 46.9834C73.0295 46.9834 73.4734 46.4259 73.4734 45.6619C73.4734 44.898 73.0295 44.3302 72.2553 44.3302C71.481 44.3302 71.0371 44.9083 71.0371 45.6619ZM72.2553 48.1706C70.8099 48.1706 69.8911 47.0143 69.8911 45.6619C69.8911 44.2992 70.8099 43.143 72.2553 43.143C73.7006 43.143 74.6194 44.3199 74.6194 45.6619C74.6194 47.004 73.7006 48.1706 72.2553 48.1706ZM16.3526 41.1706H15.0209L12.8426 46.6215L10.5404 41.1706H9.18796L12.1199 48.1391H13.5136L16.3526 41.1706ZM19.7801 48.2113C20.7402 48.2113 21.597 47.8087 22.2164 47.1686L21.4112 46.2189C21.0292 46.6009 20.3582 46.8486 19.7801 46.8486C18.438 46.8486 17.6018 45.8679 17.6018 44.6497C17.6018 43.4315 18.438 42.4507 19.7801 42.4611C20.3582 42.4611 21.0292 42.6985 21.4112 43.0804L22.2164 42.1307C21.6073 41.4906 20.7402 41.088 19.7801 41.088C17.6843 41.088 16.3423 42.6985 16.3423 44.6497C16.3423 46.6008 17.6843 48.2113 19.7801 48.2113ZM5.76056 41.1707H4.5011V43.9374H1.25946V41.1707H0V48.1391H1.25946V45.1866H4.5011V48.1391H5.76056V41.1707ZM7.03041 41.1707V48.1391H8.28987V41.1707H7.03041ZM24.4774 46.8593H25.4478V46.8489C26.666 46.8489 27.6674 45.8682 27.6674 44.6396C27.6674 43.4111 26.666 42.4304 25.4478 42.4304H24.4774V46.8593ZM25.4788 48.1394H23.2076V48.1291V41.1606H25.4788C27.399 41.1606 28.9579 42.7195 28.9579 44.65C28.9579 46.5805 27.3887 48.1394 25.4788 48.1394ZM32.2718 48.1394V41.1709H33.5312V48.1394H32.2718ZM38.2698 48.1394V45.5378C38.2698 44.8564 37.9188 44.3919 37.1033 44.3919C36.4838 44.3919 35.978 44.8874 36.0089 45.5585V48.1394H34.7494V43.1737H36.0089V43.8447C36.267 43.3595 36.8967 43.1737 37.2477 43.1737C38.404 43.1737 39.5293 43.7828 39.5293 45.321V48.1394H38.2698ZM43.9272 47.6022L42.998 46.6731C42.8638 46.8073 42.8432 46.8176 42.7296 46.8176C42.5231 46.8176 42.4096 46.704 42.4096 46.4356V44.2986H43.762V43.132H42.4096V41.2634H41.0985V43.132H40.221V44.2986H41.0985V46.4356C41.0985 47.3234 41.8831 48.139 42.7296 48.139C43.2251 48.139 43.6175 47.9015 43.9272 47.6022ZM47.6747 45.2071H45.2486C45.3518 44.5463 45.8887 44.247 46.5081 44.247C47.1275 44.247 47.5921 44.598 47.6747 45.2071ZM44.0923 45.6613C44.0923 47.0137 44.9699 48.1597 46.5081 48.1597C48.1392 48.1597 48.6038 47.0447 48.6038 47.0447L47.4889 46.5698C47.4889 46.5698 47.3237 47.0447 46.5081 47.0447C45.8164 47.0447 45.4138 46.7143 45.2486 46.1878H48.8413C48.8413 46.1878 48.8928 45.238 48.6038 44.4844L48.6014 44.4798L48.5996 44.4762L48.592 44.4597C48.5061 44.2712 47.9863 43.132 46.5081 43.132C44.9286 43.132 44.0923 44.2882 44.0923 45.651V45.6613ZM50.9371 43.1429V43.9894C51.2777 43.37 51.9901 43.1326 52.3514 43.1326V44.3198C51.4532 44.3198 50.9371 45.0528 50.9371 45.6619V48.1292H49.6776V43.1429H50.9371ZM53.9413 45.7032C53.9413 46.4568 54.3232 47.0143 55.1595 47.0143C55.7995 47.0143 56.3777 46.4672 56.3777 45.7032C56.3673 44.9393 55.7995 44.3921 55.1595 44.3921C54.3232 44.3921 53.9413 44.9496 53.9413 45.7032ZM55.0356 48.2118C53.5283 48.2118 52.6714 47.0556 52.6714 45.7032V45.6825C52.6714 44.3405 53.5283 43.1842 55.0356 43.1842C55.5621 43.1842 56.0783 43.4217 56.4499 43.8862V43.1739H57.7094V48.1292H56.4499V47.5098C56.0783 47.9744 55.5518 48.2118 55.0356 48.2118ZM60.9304 46.9312C60.0425 46.9312 59.6296 46.3221 59.6296 45.5684C59.6296 44.8148 60.0425 44.1954 60.9304 44.1954C61.2917 44.1954 61.6117 44.3606 61.8492 44.598L62.7473 43.7205C62.2931 43.2559 61.6634 42.9565 60.9614 42.9565C59.3715 42.9565 58.432 44.1334 58.432 45.5684C58.432 47.0034 59.3715 48.1699 60.9614 48.1699C61.6634 48.1699 62.2931 47.8706 62.7473 47.406L61.8492 46.5285C61.6117 46.766 61.2917 46.9312 60.9304 46.9312ZM66.8355 47.6022L65.9064 46.6731C65.7722 46.8073 65.7515 46.8176 65.6379 46.8176C65.4315 46.8176 65.3179 46.704 65.3179 46.4356V44.2986H66.6703V43.132H65.3179V41.2634H64.0069V43.132H63.1293V44.2986H64.0069V46.4356C64.0069 47.3234 64.7914 48.139 65.6379 48.139C66.1335 48.139 66.5258 47.9015 66.8355 47.6022ZM78.9451 45.5378V48.1394H80.2046V45.321C80.2046 43.7828 79.0793 43.1737 77.9231 43.1737C77.5721 43.1737 76.9423 43.3595 76.6842 43.8447V43.1737H75.4248V48.1394H76.6842V45.5585C76.6532 44.8874 77.1591 44.3919 77.7785 44.3919C78.5941 44.3919 78.9451 44.8564 78.9451 45.5378ZM85.7174 46.8593H84.747V42.4304H85.7174C86.9356 42.4304 87.937 43.4111 87.937 44.6396C87.937 45.8682 86.9356 46.8489 85.7174 46.8489V46.8593ZM83.4772 48.1394H85.7484C87.6583 48.1394 89.2275 46.5805 89.2275 44.65C89.2275 42.7195 87.6686 41.1606 85.7484 41.1606H83.4772V48.1291V48.1394ZM90.9721 45.2076H93.3982C93.3156 44.5985 92.851 44.2475 92.2316 44.2475C91.6122 44.2475 91.0754 44.5469 90.9721 45.2076ZM92.2213 48.1602C90.683 48.1602 89.8056 47.0143 89.8056 45.6619V45.6515C89.8056 44.2888 90.6417 43.1326 92.2213 43.1326C93.6995 43.1326 94.2193 44.2718 94.3053 44.4603C94.3112 44.4732 94.315 44.4816 94.317 44.485C94.6061 45.2386 94.5544 46.1884 94.5544 46.1884H90.9618C91.127 46.7149 91.5296 47.0453 92.2213 47.0453C93.0368 47.0453 93.202 46.5704 93.202 46.5704L94.317 47.0453C94.317 47.0453 93.8524 48.1602 92.2213 48.1602ZM98.1574 44.8361L98.1647 44.8309L98.1678 44.8361H98.1574ZM98.1647 44.8309L99.1485 44.134C99.0246 43.9276 98.8182 43.6901 98.5291 43.494C98.0026 43.1533 97.3626 43.0913 96.9806 43.1326C96.4954 43.1842 95.814 43.3908 95.5352 44.0102C95.2978 44.5676 95.4424 45.1974 95.7624 45.5587C95.8347 45.6516 95.9998 45.7962 96.2166 45.9304C96.3786 46.0418 96.4712 46.0737 96.7574 46.1724L96.7741 46.1781L97.1251 46.2814C97.2994 46.332 97.4294 46.3689 97.5291 46.3971C97.7953 46.4726 97.8458 46.4869 97.951 46.5395C98.0233 46.5911 98.0645 46.684 97.9923 46.7872C97.951 46.8389 97.889 46.8801 97.8374 46.9111C97.7238 46.9627 97.6619 46.9731 97.5277 46.9937C97.1973 46.9937 97.0115 46.9627 96.6708 46.7562C96.454 46.622 96.3611 46.4465 96.2888 46.302L95.2668 46.9215C95.3184 47.0453 95.6695 47.6028 96.0618 47.8505C96.5573 48.1499 97.0425 48.2739 97.6 48.2119C97.8477 48.1913 98.1471 48.1086 98.3846 47.9848C98.684 47.8196 98.9317 47.6338 99.1073 47.3138C99.4273 46.7047 99.2208 46.0852 98.9111 45.7652C98.7253 45.5381 98.4155 45.3522 97.538 45.1045L97.1973 45.0115C97.0948 44.9749 97.0078 44.9331 96.9254 44.8934C96.8916 44.8772 96.8587 44.8614 96.8257 44.8464C96.8056 44.832 96.7854 44.8192 96.7664 44.8072C96.7172 44.7759 96.6754 44.7494 96.6605 44.7122C96.6193 44.6399 96.6193 44.5676 96.6605 44.485C96.7328 44.3921 96.867 44.3405 97.0528 44.3405C97.2903 44.3405 97.6206 44.3818 97.8993 44.5573C98.0415 44.6588 98.1037 44.7304 98.1647 44.8309ZM100.356 43.1224V48.1706H101.595V43.1224H100.356ZM100.305 41.357C100.305 41.7286 100.542 42.028 100.976 42.028C101.409 42.028 101.647 41.7286 101.647 41.357C101.647 40.9853 101.409 40.6756 100.976 40.6756C100.542 40.6756 100.305 40.975 100.305 41.357ZM105.136 46.9421C104.331 46.9421 103.959 46.3846 103.959 45.6413C103.959 44.898 104.331 44.3715 105.136 44.3715C105.776 44.3715 106.334 44.929 106.334 45.6413C106.334 46.3537 105.776 46.9421 105.136 46.9421ZM102.669 45.6413C102.669 47.097 103.526 48.15 105.033 48.15C105.415 48.15 105.983 48.0158 106.447 47.448V48.0261C106.447 48.9243 105.436 49.1927 105.002 49.1927C104.744 49.1927 104.145 49.0894 103.825 48.5835L102.751 49.2959C103.216 49.9876 104.125 50.4005 105.002 50.4005C106.365 50.4005 107.707 49.5539 107.717 47.8402V43.1326H106.447V43.8347C106.034 43.2772 105.405 43.143 105.033 43.143C103.526 43.143 102.669 44.2063 102.669 45.6413ZM112.425 45.5381V48.1396H113.684V45.3213C113.684 43.7831 112.559 43.174 111.403 43.174C111.052 43.174 110.422 43.3597 110.164 43.845V43.174H108.904V48.1396H110.164V45.5587C110.133 44.8877 110.639 44.3921 111.258 44.3921C112.074 44.3921 112.425 44.8567 112.425 45.5381ZM123.812 44.2373H120.57V45.4554H122.428C122.15 46.6427 121.21 46.9317 120.395 46.9421C118.97 46.9421 118.134 45.951 118.134 44.6606C118.134 43.3701 118.97 42.379 120.395 42.379C121.819 42.379 122.284 43.401 122.284 43.401L123.399 42.7817C123.399 42.7817 122.687 41.1092 120.405 41.1092C118.123 41.1092 116.895 42.6784 116.895 44.6606C116.895 46.6427 118.185 48.2222 120.405 48.2222C122.346 48.2222 123.595 47.1176 123.801 45.1974C123.801 45.1974 123.853 44.4954 123.801 44.2476L123.812 44.2373ZM125.876 43.1429V43.9894C126.217 43.37 126.929 43.1326 127.291 43.1326V44.3198C126.393 44.3198 125.876 45.0528 125.876 45.6619V48.1292H124.617V43.1429H125.876ZM128.757 45.6619C128.757 46.4155 129.201 46.9833 129.975 46.9833C130.749 46.9833 131.193 46.4258 131.193 45.6619C131.193 44.8979 130.749 44.3301 129.975 44.3301C129.201 44.3301 128.757 44.9082 128.757 45.6619ZM129.985 48.1705C128.54 48.1705 127.621 47.0143 127.621 45.6619C127.621 44.2991 128.54 43.1429 129.985 43.1429C131.431 43.1429 132.349 44.3198 132.349 45.6619C132.349 47.0039 131.431 48.1705 129.985 48.1705ZM134.507 45.7747V43.1732H133.258V45.9812C133.258 47.5194 134.373 48.1389 135.529 48.1389C135.901 48.1389 136.51 47.9634 136.778 47.4678V48.1389H138.027V43.1629H136.778V45.7541C136.799 46.4252 136.314 46.9104 135.674 46.9104C134.858 46.9104 134.507 46.4458 134.507 45.7747ZM141.754 47.0239C141.083 47.0239 140.495 46.4148 140.495 45.6406C140.495 44.8663 141.094 44.2675 141.754 44.2675C142.539 44.2675 143.014 44.8766 143.014 45.6406C143.014 46.4045 142.529 47.0239 141.754 47.0239ZM139.173 50.4204H140.433V47.4472C140.794 48.0563 141.62 48.1492 141.868 48.1492C143.303 48.1492 144.242 46.9826 144.242 45.6302C144.242 44.2778 143.303 43.1216 141.868 43.1216C141.63 43.1216 140.794 43.2558 140.433 43.8133V43.1216H139.173V50.4204ZM150.437 44.6288H148.671V42.4609H150.437C151.035 42.4609 151.521 42.9461 151.521 43.5345C151.521 44.123 151.025 44.6185 150.437 44.6185V44.6288ZM147.412 48.1389H148.671V45.9296H150.406C151.727 45.9296 152.78 44.856 152.78 43.5552C152.78 42.2544 151.727 41.1807 150.406 41.1807H147.401V48.1492L147.412 48.1389ZM154.906 44.6497H156.703V44.6393C157.291 44.6393 157.776 44.1231 157.776 43.5347C157.776 42.9462 157.302 42.4611 156.703 42.4611H154.906V44.6497ZM154.906 48.1391H153.688H153.678V41.1706H156.858C158.055 41.1706 159.026 42.141 159.026 43.5038C158.953 44.6807 158.344 45.3104 157.58 45.7233L159.356 48.1391H157.807L156.187 45.9298H154.906V48.1391ZM160.966 44.6497C160.966 45.9298 161.854 46.9415 163.227 46.9415C164.6 46.9415 165.488 45.9195 165.488 44.6497C165.488 43.3799 164.6 42.3681 163.227 42.3681C161.854 42.3681 160.966 43.3695 160.966 44.6497ZM163.227 48.2113C161.152 48.2113 159.717 46.6112 159.717 44.6497C159.717 42.6985 161.152 41.088 163.227 41.088C165.302 41.088 166.737 42.6882 166.737 44.6497C166.737 46.6112 165.302 48.2113 163.227 48.2113ZM167.099 41.1706H172.137V42.4095H170.268V48.1391H168.998V42.4095H167.099V41.1706ZM175.626 46.9415C174.253 46.9415 173.365 45.9298 173.365 44.6497C173.365 43.3695 174.253 42.3681 175.626 42.3681C176.999 42.3681 177.887 43.3799 177.887 44.6497C177.887 45.9195 176.999 46.9415 175.626 46.9415ZM172.116 44.6497C172.116 46.6112 173.551 48.2113 175.626 48.2113C177.701 48.2113 179.136 46.6112 179.136 44.6497C179.136 42.6882 177.701 41.088 175.626 41.088C173.551 41.088 172.116 42.6985 172.116 44.6497ZM36.8348 3.28263L36.8244 13.2759L36.8348 13.2747V35.0279H47.0655V12.083L60.6861 10.4964L50.2248 18.1593L50.2245 18.1593L50.2246 18.1594L50.2245 18.1594L55.2522 24.7976L55.2523 24.7975L63.955 36.2876L71.9042 30.4548L62.3219 19.6769L68.2084 15.4133V4.98641L68.2036 4.98992L68.2084 1.00111L36.8352 3.2826L36.8348 3.28263ZM155.02 17.8703C155.02 22.8256 158.417 26.1705 163.258 26.1705C167.987 26.1705 171.331 22.8256 171.331 17.8703C171.331 13.1936 168.1 9.79715 163.258 9.79715C158.417 9.79715 155.02 13.204 155.02 17.8703ZM181.17 17.9632C181.17 28.3694 173.613 35.978 163.207 35.978C152.739 35.978 145.192 28.3798 145.192 17.9632C145.192 7.54659 152.79 0 163.207 0C173.623 0 181.17 7.55692 181.17 17.9632ZM142.704 11.5829V1.04245L110.783 3.10718V13.5238L121.241 12.8879V35.0382H132.236V12.2194L142.704 11.5829Z" fill="#C4C8CF"/>
</svg>
