<svg width="30" height="30" viewBox="0 0 30 30" fill="none" xmlns="http://www.w3.org/2000/svg">
<g id="004-vimeo-social-logo">
<g id="logo-instagram">
<path id="Combined Shape" fill-rule="evenodd" clip-rule="evenodd" d="M8.79422 0.0899997C10.3905 0.0174999 10.9005 0 14.9646 0C19.0288 0 19.5388 0.0174999 21.1351 0.0899997C23.5668 0.201249 25.703 0.798748 27.4177 2.51749C29.1324 4.23624 29.7285 6.37748 29.8395 8.81497C29.9118 10.415 29.9293 10.9262 29.9293 15C29.9293 19.0737 29.9118 19.5849 29.8395 21.1849C29.7285 23.6224 29.1324 25.7637 27.4177 27.4824C25.703 29.2012 23.5668 29.7987 21.1351 29.9099C19.5388 29.9824 19.0288 29.9999 14.9646 29.9999C10.9005 29.9999 10.3905 29.9824 8.79422 29.9099C6.36247 29.7987 4.22627 29.2012 2.51157 27.4824C0.796867 25.7637 0.200776 23.6224 0.0897879 21.1849C0.0174588 19.5849 0 19.0737 0 15C0 10.9262 0.0174588 10.415 0.0897879 8.81497C0.200776 6.37748 0.796867 4.23624 2.51157 2.51749C4.22627 0.798748 6.36247 0.201249 8.79422 0.0899997ZM21.0103 2.79013C19.4328 2.71763 18.9589 2.70263 14.9634 2.70263C10.9678 2.70263 10.4939 2.71763 8.91638 2.79013C7.21291 2.86763 5.63289 3.21013 4.41701 4.42887C3.20114 5.64762 2.85944 7.23137 2.78213 8.93886C2.7098 10.5201 2.69483 10.9951 2.69483 15.0001C2.69483 19.0051 2.7098 19.4801 2.78213 21.0613C2.85944 22.7688 3.20114 24.3526 4.41701 25.5713C5.63289 26.7901 7.21291 27.1326 8.91638 27.2101C10.4939 27.2826 10.9678 27.2976 14.9634 27.2976C18.9589 27.2976 19.4328 27.2826 21.0103 27.2101C22.7138 27.1326 24.2938 26.7901 25.5097 25.5713C26.7256 24.3526 27.0673 22.7688 27.1446 21.0613C27.2169 19.4801 27.2319 19.0051 27.2319 15.0001C27.2319 10.9951 27.2169 10.5201 27.1446 8.93886C27.0673 7.23137 26.7256 5.64762 25.5097 4.42887C24.2938 3.21013 22.7138 2.86763 21.0103 2.79013ZM7.27776 14.9988C7.27776 10.7451 10.7184 7.29636 14.9621 7.29636C19.2058 7.29636 22.6464 10.7451 22.6464 14.9988C22.6464 19.2526 19.2058 22.7013 14.9621 22.7013C10.7184 22.7013 7.27776 19.2526 7.27776 14.9988ZM9.97256 14.999C9.97256 17.7602 12.206 19.999 14.9608 19.999C17.7155 19.999 19.949 17.7602 19.949 14.999C19.949 12.2377 17.7155 9.99899 14.9608 9.99899C12.206 9.99899 9.97256 12.2377 9.97256 14.999ZM24.7465 6.99333C24.7465 7.98744 23.9426 8.79332 22.9508 8.79332C21.959 8.79332 21.155 7.98744 21.155 6.99333C21.155 5.99921 21.959 5.19333 22.9508 5.19333C23.9426 5.19333 24.7465 5.99921 24.7465 6.99333Z" fill="#6A717D"/>
</g>
</g>
</svg>
